<?xml version="1.0" standalone="no"?>
<!DOCTYPE svg PUBLIC "-//W3C//DTD SVG 20010904//EN"
 "http://www.w3.org/TR/2001/REC-SVG-20010904/DTD/svg10.dtd">
<svg version="1.0" xmlns="http://www.w3.org/2000/svg"
 width="462.000000pt" height="462.000000pt" viewBox="0 0 462.000000 462.000000"
 preserveAspectRatio="xMidYMid meet">
<metadata>
Created by potrace 1.14, written by Peter Selinger 2001-2017
</metadata>
<g transform="translate(0.000000,462.000000) scale(0.100000,-0.100000)"
fill="#000000" stroke="none">
<path d="M855 4609 c-38 -4 -81 -10 -95 -14 -14 -3 -41 -8 -60 -11 -19 -3 -39
-9 -45 -14 -5 -4 -26 -11 -45 -15 -19 -4 -39 -11 -45 -15 -5 -4 -30 -15 -55
-24 -24 -10 -64 -31 -88 -47 -24 -16 -45 -29 -48 -29 -3 0 -11 -6 -19 -12 -7
-7 -32 -29 -55 -48 -75 -62 -133 -126 -153 -167 -5 -13 -14 -23 -19 -23 -5 0
-6 -4 -3 -10 3 -5 2 -10 -3 -10 -9 0 -36 -47 -37 -66 0 -6 -6 -18 -12 -26 -7
-8 -14 -23 -16 -34 -1 -10 -6 -25 -10 -31 -5 -7 -6 -13 -3 -13 3 0 1 -11 -4
-26 -13 -33 -19 -70 -25 -147 -3 -34 -7 -79 -9 -99 -2 -21 0 -38 6 -38 5 0 6
-5 2 -11 -10 -17 -11 -60 -2 -86 4 -13 3 -23 -2 -23 -5 0 -7 -6 -4 -13 2 -7 6
-72 7 -143 1 -71 6 -135 11 -143 6 -9 5 -12 0 -8 -14 8 -14 -336 0 -345 8 -5
7 -8 -1 -8 -8 0 -13 -13 -13 -32 0 -25 3 -29 10 -18 5 8 10 10 10 4 0 -5 -5
-15 -12 -22 -7 -7 -8 -12 -4 -12 5 0 3 -7 -4 -15 -10 -12 -9 -16 4 -21 14 -5
14 -7 -1 -22 -10 -11 -12 -17 -4 -20 6 -2 8 -9 4 -15 -13 -20 -12 -721 1 -729
7 -5 7 -8 0 -8 -6 0 -11 -34 -12 -90 -1 -64 2 -89 10 -84 8 5 8 3 2 -7 -13
-20 -12 -769 1 -769 6 0 3 -5 -5 -10 -10 -6 -11 -10 -2 -10 6 0 12 -5 12 -11
0 -5 -5 -7 -11 -3 -8 4 -8 1 -1 -12 5 -11 7 -25 4 -33 -2 -7 2 -17 9 -22 11
-7 11 -9 1 -9 -10 0 -10 -4 2 -16 11 -11 13 -20 6 -33 -13 -25 -8 -61 8 -61
11 0 12 -3 3 -14 -8 -10 -6 -20 11 -42 12 -16 15 -23 6 -16 -13 10 -17 10 -22
-3 -3 -9 -2 -13 4 -10 9 6 14 -14 11 -42 -1 -7 3 -13 9 -13 5 0 10 -11 10 -25
0 -14 9 -35 20 -47 15 -16 17 -25 9 -35 -9 -9 -8 -13 0 -13 7 0 9 -5 5 -12 -5
-9 -2 -8 9 1 15 12 17 12 11 -3 -3 -9 1 -27 10 -41 9 -14 14 -30 11 -35 -3 -6
1 -10 10 -10 12 0 15 -5 11 -16 -5 -13 -4 -14 7 -6 11 9 13 7 12 -10 -2 -24
15 -49 27 -41 5 2 8 -3 8 -11 0 -9 9 -21 19 -28 11 -6 17 -18 13 -26 -3 -9 -1
-13 4 -10 11 7 35 -17 27 -26 -4 -3 1 -6 10 -6 9 0 17 -5 17 -11 0 -5 4 -8 9
-5 5 3 11 -4 14 -15 3 -12 10 -18 16 -14 6 3 11 1 11 -5 0 -7 7 -9 16 -6 15 6
15 4 3 -11 -9 -10 -9 -14 -2 -10 7 5 21 -2 34 -17 12 -14 26 -23 31 -20 4 3 8
-2 8 -10 0 -9 5 -16 11 -16 5 0 8 4 5 8 -3 5 1 9 9 9 8 0 11 -5 8 -10 -4 -6 0
-8 10 -4 13 5 17 1 17 -15 0 -21 1 -21 13 -3 10 13 16 15 21 6 6 -9 13 -8 29
6 l22 18 -19 -22 c-15 -18 -22 -20 -33 -12 -9 9 -13 9 -13 0 0 -6 3 -12 8 -12
4 -1 20 -3 36 -5 16 -2 34 -8 40 -14 8 -8 4 -9 -15 -2 -14 6 -31 7 -38 2 -9
-5 -3 -8 14 -8 15 0 30 -5 34 -11 4 -6 14 -9 22 -6 9 3 24 -3 34 -15 17 -19
19 -19 36 -4 10 9 16 21 12 27 -3 6 -1 7 5 3 8 -5 9 -13 3 -25 -9 -15 -6 -17
20 -13 23 3 29 0 30 -14 0 -18 1 -18 9 1 l9 20 1 -20 c2 -11 2 -24 1 -29 -1
-5 5 -4 13 4 17 13 22 25 8 16 -5 -3 -9 1 -9 9 0 13 3 13 17 0 10 -9 25 -13
34 -9 9 3 16 2 16 -4 0 -6 -11 -9 -25 -8 -13 2 -22 -1 -19 -5 5 -9 59 -3 77 8
6 3 7 1 3 -5 -7 -12 112 -10 134 3 8 5 11 4 7 -2 -5 -7 429 -11 1398 -10 1014
0 1402 3 1398 11 -4 6 0 5 9 -2 13 -10 17 -10 21 0 4 10 6 9 6 -1 1 -11 5 -10
17 5 8 10 13 13 9 7 -3 -7 -1 -13 4 -13 6 0 11 6 11 13 0 8 3 8 8 2 8 -12 19
-12 44 -1 9 4 22 5 28 1 6 -4 9 -1 8 6 -2 9 7 13 25 13 21 -1 27 2 22 14 -4
12 -3 12 9 3 10 -8 16 -9 21 -1 3 6 11 8 16 5 5 -4 9 -2 9 3 0 6 8 9 18 8 10
0 16 5 14 13 -3 12 0 12 12 2 17 -14 32 2 20 22 -5 8 -2 8 9 -2 11 -9 17 -10
17 -2 0 6 5 10 11 8 6 -1 14 4 17 12 3 9 0 11 -8 6 -9 -5 -11 -4 -6 3 5 9 15
7 34 -5 23 -15 25 -15 14 -2 -10 13 -9 19 5 30 13 11 17 11 20 2 3 -7 9 -13
14 -13 6 0 5 9 -2 21 -6 12 -7 19 -1 16 11 -7 55 37 46 46 -3 3 3 3 15 0 13
-3 21 -1 21 6 0 7 -5 9 -12 5 -7 -4 -8 -3 -4 5 6 9 11 9 22 0 12 -10 13 -9 8
6 -5 13 -4 16 5 11 6 -4 11 -4 10 1 -4 21 2 34 13 27 8 -5 9 0 5 15 -5 19 -3
20 9 10 8 -7 14 -8 13 -3 -3 12 22 65 39 83 15 16 36 62 34 73 -1 5 3 8 8 8 6
0 10 9 10 21 0 11 4 17 10 14 6 -3 7 1 4 9 -3 9 -1 16 4 16 6 0 9 9 7 20 -2
11 3 24 13 30 12 6 13 9 3 10 -10 0 -11 3 -2 13 6 8 8 17 4 20 -3 4 0 7 8 7
11 0 11 2 -1 10 -11 7 -11 10 -2 10 7 0 10 4 7 10 -3 5 -1 19 6 31 8 16 8 20
-1 14 -9 -6 -9 -2 -1 14 9 16 9 21 -1 21 -8 0 -9 3 -3 8 12 9 13 52 1 71 -6
10 -5 12 2 7 15 -9 15 -1 0 27 -10 21 -10 21 7 7 17 -14 17 -14 7 6 -6 11 -7
26 -2 34 10 16 1 42 -12 34 -5 -3 -4 4 4 15 8 14 9 24 3 29 -5 4 -11 13 -13
21 -2 11 0 12 10 4 10 -9 13 -5 13 17 1 22 -3 27 -17 25 -10 -2 -16 0 -13 6 4
5 13 9 21 9 8 0 14 4 14 9 0 5 -12 8 -27 6 l-26 -3 24 20 24 19 -24 -6 c-16
-5 -21 -4 -17 4 4 6 14 11 22 11 8 0 13 4 9 10 -3 5 -13 7 -23 4 -14 -5 -14
-4 -2 4 8 6 18 8 23 5 5 -3 6 4 2 17 -5 17 -4 21 6 15 11 -6 11 -5 2 5 -13 14
-37 4 -27 -12 4 -7 2 -8 -4 -4 -15 9 -3 36 17 37 10 0 11 2 3 6 -7 2 -17 14
-23 26 -9 20 -9 20 4 5 20 -25 28 -22 18 5 -5 12 -15 21 -23 19 -7 -1 -4 6 7
15 11 10 20 27 21 38 1 11 4 31 7 45 4 14 4 19 1 13 -9 -19 -20 -16 -20 6 0
11 5 17 10 14 5 -4 7 1 3 10 -3 10 -3 17 1 17 13 0 6 54 -7 58 -8 3 -6 8 6 17
15 11 16 15 3 31 -8 10 -10 15 -5 12 6 -4 10 19 10 62 0 55 -3 67 -15 63 -13
-4 -13 -3 0 9 17 15 24 68 9 68 -6 0 -8 -4 -5 -8 3 -5 -2 -9 -11 -9 -14 0 -13
3 3 16 16 14 19 30 19 109 0 50 -4 92 -9 92 -4 0 -5 -8 -1 -17 5 -15 4 -16 -7
-5 -11 11 -10 16 7 28 16 12 18 18 7 34 -7 11 -9 20 -5 20 16 0 8 60 -7 61
-10 0 -8 3 5 9 17 7 17 9 3 9 -22 1 -24 19 -3 27 8 4 12 10 9 15 -3 5 -11 7
-17 3 -7 -3 -5 0 4 8 16 14 21 111 6 136 -5 7 -3 12 3 12 6 0 8 5 5 10 -4 6
-11 7 -17 4 -7 -4 -8 -2 -4 5 4 6 10 9 14 7 10 -6 8 127 -2 143 -6 9 -5 12 0
8 16 -9 11 407 -4 426 -10 12 -10 17 -1 23 7 4 9 3 5 -4 -3 -6 -2 -13 4 -17
13 -8 13 6 0 40 -5 14 -6 24 -1 21 11 -7 8 124 -2 142 -5 6 -4 12 0 12 12 0
15 48 3 55 -6 4 -7 11 -3 18 3 6 7 38 8 71 1 47 -3 63 -14 68 -14 6 -13 7 2 7
19 1 24 21 5 21 -10 0 -10 2 0 9 16 9 15 20 -1 40 -8 10 -8 13 -1 8 8 -4 11
11 9 51 -1 42 -5 56 -15 54 -11 -3 -11 0 0 13 18 22 21 45 7 45 -8 0 -8 3 -2
8 6 4 11 46 11 95 1 79 0 86 -15 75 -15 -12 -15 -11 0 7 17 21 19 71 5 94 -6
9 -5 12 1 8 6 -4 9 30 8 91 -2 90 -6 110 -37 162 -5 8 -14 27 -21 43 -6 15
-15 27 -19 27 -4 0 -8 7 -8 15 0 8 -4 15 -10 15 -5 0 -10 5 -10 11 0 6 -6 16
-12 24 -7 7 -33 36 -57 64 -24 28 -48 48 -52 45 -5 -3 -9 2 -9 10 0 9 -4 16
-8 16 -5 0 -24 14 -42 30 -58 52 -234 145 -252 133 -5 -2 -8 1 -8 6 0 6 -8 11
-18 11 -10 0 -22 3 -26 7 -7 7 -12 9 -66 18 -19 4 -61 13 -94 20 -48 11 -319
14 -1500 13 -792 -1 -1472 -5 -1511 -9z m3752 -1364 c0 -8 -4 -12 -9 -9 -5 3
-6 10 -3 15 9 13 12 11 12 -6z m-4577 -435 c0 -5 -5 -10 -11 -10 -5 0 -7 5 -4
10 3 6 8 10 11 10 2 0 4 -4 4 -10z m4576 -585 c-1 -8 -5 -17 -8 -21 -5 -4 -4
16 1 34 3 9 9 -1 7 -13z m-10 -63 c-17 -16 -18 -16 -5 5 7 12 15 20 18 17 3
-2 -3 -12 -13 -22z m9 -182 c3 -5 1 -10 -4 -10 -6 0 -11 5 -11 10 0 6 2 10 4
10 3 0 8 -4 11 -10z m5 -194 c0 -2 -7 -7 -16 -10 -8 -3 -12 -2 -9 4 6 10 25
14 25 6z m-6 -164 c3 -5 -1 -9 -9 -9 -8 0 -12 4 -9 9 3 4 7 8 9 8 2 0 6 -4 9
-8z m1 -110 c-3 -3 -11 0 -18 7 -9 10 -8 11 6 5 10 -3 15 -9 12 -12z m-14 -75
c-10 -9 -11 -8 -5 6 3 10 9 15 12 12 3 -3 0 -11 -7 -18z m9 -113 c0 -8 -19
-13 -24 -6 -3 5 1 9 9 9 8 0 15 -2 15 -3z m-3940 -1100 c0 -8 -19 -13 -24 -6
-3 5 1 9 9 9 8 0 15 -2 15 -3z m-16 -123 c3 -5 -1 -11 -9 -14 -9 -4 -12 -1 -8
9 6 16 10 17 17 5z m42 -31 c9 0 12 -5 9 -10 -8 -13 -35 6 -34 24 0 7 2 6 6
-1 2 -7 11 -13 19 -13z m288 -52 c-7 -10 -24 -10 -24 0 0 5 7 9 15 9 8 0 12
-4 9 -9z"/>
<path d="M4598 1283 c7 -3 16 -2 19 1 4 3 -2 6 -13 5 -11 0 -14 -3 -6 -6z"/>
<path d="M80 600 c0 -5 5 -10 11 -10 5 0 7 5 4 10 -3 6 -8 10 -11 10 -2 0 -4
-4 -4 -10z"/>
<path d="M4345 209 c-11 -16 -1 -19 13 -3 7 8 8 14 3 14 -5 0 -13 -5 -16 -11z"/>
<path d="M4265 150 c-3 -5 -1 -10 4 -10 6 0 11 5 11 10 0 6 -2 10 -4 10 -3 0
-8 -4 -11 -10z"/>
</g>
</svg>
